<?xml version="1.0" encoding="UTF-8"?>
<svg width="400" height="600" viewBox="0 0 400 600" xmlns="http://www.w3.org/2000/svg">
  <defs>
    <!-- Advanced Multi-Color Gradients -->
    <radialGradient id="bgRadial" cx="50%" cy="50%">
      <stop offset="0%" style="stop-color:#6EE7B7;stop-opacity:0.9" />
      <stop offset="50%" style="stop-color:#10B981;stop-opacity:1" />
      <stop offset="100%" style="stop-color:#065F46;stop-opacity:1" />
    </radialGradient>
    
    <linearGradient id="borderShine" x1="0%" y1="0%" x2="100%" y2="100%">
      <stop offset="0%" style="stop-color:#FDE68A;stop-opacity:1" />
      <stop offset="25%" style="stop-color:#F59E0B;stop-opacity:1" />
      <stop offset="50%" style="stop-color:#D97706;stop-opacity:1" />
      <stop offset="75%" style="stop-color:#B45309;stop-opacity:1" />
      <stop offset="100%" style="stop-color:#FDE68A;stop-opacity:1" />
    </linearGradient>
    
    <linearGradient id="glassShine" x1="0%" y1="0%" x2="0%" y2="100%">
      <stop offset="0%" style="stop-color:white;stop-opacity:0.3" />
      <stop offset="50%" style="stop-color:white;stop-opacity:0" />
      <stop offset="100%" style="stop-color:white;stop-opacity:0.1" />
    </linearGradient>
    
    <!-- Advanced Filters -->
    <filter id="glow" x="-50%" y="-50%" width="200%" height="200%">
      <feGaussianBlur in="SourceGraphic" stdDeviation="8" result="blur"/>
      <feColorMatrix in="blur" type="matrix" values="1 0 0 0 0  0 1 0 0 0  0 0 1 0 0  0 0 0 18 -7" result="glow"/>
      <feBlend in="SourceGraphic" in2="glow"/>
    </filter>
    
    <filter id="innerShadow">
      <feGaussianBlur in="SourceAlpha" stdDeviation="3"/>
      <feOffset dx="0" dy="2" result="offsetblur"/>
      <feComponentTransfer>
        <feFuncA type="linear" slope="0.5"/>
      </feComponentTransfer>
      <feMerge>
        <feMergeNode/>
        <feMergeNode in="SourceGraphic"/>
      </feMerge>
    </filter>
    
    <filter id="dropShadow">
      <feGaussianBlur in="SourceAlpha" stdDeviation="5"/>
      <feOffset dx="0" dy="4" result="offsetblur"/>
      <feFlood flood-color="rgba(245,158,11,0.6)"/>
      <feComposite in2="offsetblur" operator="in"/>
      <feMerge>
        <feMergeNode/>
        <feMergeNode in="SourceGraphic"/>
      </feMerge>
    </filter>
    
    <!-- Pattern for texture -->
    <pattern id="hexPattern" x="0" y="0" width="40" height="40" patternUnits="userSpaceOnUse">
      <path d="M20,5 L35,12.5 L35,27.5 L20,35 L5,27.5 L5,12.5 Z" 
            fill="none" stroke="#047857" stroke-width="1" opacity="0.15"/>
    </pattern>
  </defs>
  
  <!-- Outer Glow -->
  <rect x="0" y="0" width="400" height="600" rx="25" fill="rgba(245,158,11,0.6)" opacity="0.4"/>
  
  <!-- Holographic Border (Animated shine effect) -->
  <rect x="8" y="8" width="384" height="584" rx="22" fill="url(#borderShine)" filter="url(#dropShadow)"/>
  
  <!-- Inner Border Highlight -->
  <rect x="12" y="12" width="376" height="576" rx="20" fill="none" stroke="#FDE68A" stroke-width="2" opacity="0.6"/>
  
  <!-- Card Base (Dark Background) -->
  <rect x="16" y="16" width="368" height="568" rx="18" fill="#0F172A"/>
  
  <!-- Element Art Panel with Advanced Gradient -->
  <rect x="28" y="28" width="344" height="420" rx="15" fill="url(#bgRadial)" filter="url(#innerShadow)"/>
  
  <!-- Hex Pattern Overlay -->
  <rect x="28" y="28" width="344" height="420" rx="15" fill="url(#hexPattern)"/>
  
  <!-- Glass Shine Effect -->
  <rect x="28" y="28" width="344" height="210" rx="15" fill="url(#glassShine)"/>
  
  <!-- Geometric Accent Lines -->
  <line x1="40" y1="60" x2="120" y2="60" stroke="#FDE68A" stroke-width="2" opacity="0.6"/>
  <line x1="280" y1="60" x2="360" y2="60" stroke="#FDE68A" stroke-width="2" opacity="0.6"/>
  <line x1="40" y1="416" x2="120" y2="416" stroke="#FDE68A" stroke-width="2" opacity="0.6"/>
  <line x1="280" y1="416" x2="360" y2="416" stroke="#FDE68A" stroke-width="2" opacity="0.6"/>
  
  <!-- Energy Orb Background -->
  <circle cx="200" cy="238" r="85" fill="#6EE7B7" opacity="0.2" filter="url(#glow)"/>
  <circle cx="200" cy="238" r="65" fill="#10B981" opacity="0.3" filter="url(#glow)"/>
  
  <!-- Element Symbol (Large with Glow) -->
  <text x="200" y="280" font-size="140" text-anchor="middle" fill="white" 
        style="text-shadow: 0 0 20px #6EE7B7, 0 0 40px #10B981;" filter="url(#glow)">
    🌍
  </text>
  
  <!-- Bottom Panel -->
  <rect x="28" y="470" width="344" height="110" rx="15" fill="#1E293B" opacity="0.95"/>
  
  <!-- Rarity Badge with Glow -->
  <rect x="110" y="485" width="180" height="45" rx="22" fill="#D97706" filter="url(#dropShadow)"/>
  <rect x="112" y="487" width="176" height="41" rx="20" fill="#F59E0B"/>
  <rect x="114" y="489" width="172" height="37" rx="18" fill="url(#borderShine)"/>
  <text x="200" y="515" font-size="22" font-weight="bold" text-anchor="middle" fill="white" 
        style="text-shadow: 0 2px 4px rgba(0,0,0,0.5);">
    LEGENDARY
  </text>
  
  <!-- Element Name with Modern Font -->
  <text x="200" y="555" font-size="28" font-weight="700" text-anchor="middle" 
        fill="#6EE7B7" style="text-shadow: 0 0 10px #10B981;">
    EARTH
  </text>
  
  <!-- Decorative Corner Accents -->
  <circle cx="40" cy="40" r="4" fill="#FDE68A" opacity="0.8"/>
  <circle cx="360" cy="40" r="4" fill="#FDE68A" opacity="0.8"/>
  <circle cx="40" cy="560" r="4" fill="#FDE68A" opacity="0.8"/>
  <circle cx="360" cy="560" r="4" fill="#FDE68A" opacity="0.8"/>
  
  <!-- Corner Brackets (Sci-fi style) -->
  <path d="M 35 45 L 35 35 L 45 35" stroke="#F59E0B" stroke-width="2" fill="none" opacity="0.7"/>
  <path d="M 355 45 L 355 35 L 365 35" stroke="#F59E0B" stroke-width="2" fill="none" opacity="0.7"/>
  <path d="M 35 555 L 35 565 L 45 565" stroke="#F59E0B" stroke-width="2" fill="none" opacity="0.7"/>
  <path d="M 355 555 L 355 565 L 365 565" stroke="#F59E0B" stroke-width="2" fill="none" opacity="0.7"/>
</svg>